<svg width="86" height="60" viewBox="0 0 86 60" fill="none" xmlns="http://www.w3.org/2000/svg">
  <path d="M22.9451 53.0119L18.6658 50.821L14.3866 53.0119C13.3469 53.5413 12.1264 52.6885 12.3223 51.5562L13.136 46.895L9.67039 43.6012C8.8266 42.8072 9.2937 41.4103 10.4539 41.2339L15.2455 40.5575L17.3851 36.3227C17.7919 35.5139 18.6357 35.558 18.6508 35.5433C19.1932 35.5433 19.6905 35.8374 19.9165 36.3227L22.0561 40.5575L26.8476 41.2339C28.0079 41.3956 28.475 42.7925 27.6312 43.6012L24.1656 46.895L24.9792 51.5562C25.2053 52.6885 23.9848 53.556 22.9451 53.0119ZM19.3138 48.0272L21.7095 49.2624L21.2575 46.6597C21.1822 46.2039 21.3328 45.7481 21.6643 45.4393L23.6081 43.5865L20.926 43.2042C20.4589 43.1454 20.0672 42.8513 19.8562 42.4396L18.6508 40.0722L17.4454 42.4396C17.2344 42.8513 16.8426 43.1307 16.3755 43.2042L13.6784 43.5865L15.6222 45.4393C15.9537 45.7628 16.1043 46.2186 16.029 46.6597L15.577 49.2624L17.9727 48.0272C18.4097 47.8214 18.9069 47.8067 19.3138 48.0272Z" fill="#A147A1"/>
  <path d="M13.7688 32.7054L9.48958 30.5145L5.21033 32.7054C4.17066 33.2348 2.95017 32.3819 3.14605 31.2497L3.95971 26.5885L0.494124 23.2947C-0.349671 22.5007 0.11743 21.1038 1.27765 20.9274L6.0692 20.251L8.20882 16.0161C8.61565 15.2074 9.45944 15.2515 9.47451 15.2368C10.017 15.2368 10.5142 15.5309 10.7402 16.0161L12.8798 20.251L17.6714 20.9274C18.8316 21.0891 19.2987 22.486 18.4549 23.2947L14.9893 26.5885L15.803 31.2497C16.029 32.3819 14.8085 33.2495 13.7688 32.7054ZM10.1375 27.7207L12.5333 28.9559L12.0812 26.3532C12.0059 25.8974 12.1566 25.4415 12.4881 25.1328L14.4318 23.28L11.7497 22.8977C11.2826 22.8389 10.8909 22.5448 10.6799 22.1331L9.47451 19.7657L8.26909 22.1331C8.05814 22.5448 7.66638 22.8242 7.19928 22.8977L4.50215 23.28L6.44589 25.1328C6.77738 25.4562 6.92806 25.9121 6.85272 26.3532L6.40069 28.9559L8.79646 27.7207C9.23343 27.5148 9.73066 27.5001 10.1375 27.7207Z" fill="#A147A1"/>
  <path d="M46.933 59.6435L42.6537 57.4526L38.3745 59.6435C37.3348 60.1729 36.1143 59.32 36.3102 58.1878L37.1239 53.5266L33.6583 50.2328C32.8145 49.4388 33.2816 48.0419 34.4418 47.8654L39.2333 47.189L41.373 42.9542C41.8853 41.9249 43.392 41.9249 43.9194 42.9542L46.059 47.189L50.8506 47.8654C52.0108 48.0272 52.4779 49.4241 51.6341 50.2328L48.1685 53.5266L48.9822 58.1878C49.0726 58.7024 48.8616 59.2318 48.4247 59.5406C47.9877 59.8494 47.4151 59.8935 46.933 59.6435ZM37.6964 50.2034L39.6402 52.0561C39.9717 52.3796 40.1223 52.8355 40.047 53.2766L39.595 55.8792L41.9907 54.6441C42.3976 54.4382 42.8948 54.4382 43.3167 54.6441L45.7125 55.8792L45.2605 53.2766C45.1851 52.8208 45.3358 52.3649 45.6673 52.0561L47.611 50.2034L44.929 49.8211C44.4619 49.7623 44.0701 49.4682 43.8591 49.0565L42.6537 46.6891L41.4483 49.0565C41.2374 49.4682 40.8456 49.7476 40.3785 49.8211L37.6964 50.2034Z" fill="#A147A1"/>
  <path d="M70.8304 52.7179L66.5512 50.5269L62.272 52.7179C61.2323 53.2472 60.0118 52.3944 60.2077 51.2621L61.0213 46.6009L57.5557 43.3072C56.7119 42.5131 57.1791 41.1015 58.3393 40.9398L63.1308 40.2634L65.2704 36.0286C65.7827 34.9993 67.2895 34.9993 67.8169 36.0286L69.9565 40.2634L74.7481 40.9398C75.9083 41.1015 76.3754 42.4984 75.5316 43.3072L72.066 46.6009L72.8797 51.2621C72.9701 51.7768 72.7591 52.3061 72.3222 52.6149C71.8852 52.9237 71.3126 52.9678 70.8304 52.7179ZM61.5939 43.2777L63.5376 45.1305C63.8691 45.454 64.0198 45.9098 63.9445 46.3509L63.4924 48.9536L65.8882 47.7184C66.295 47.5126 66.7923 47.5126 67.2142 47.7184L69.61 48.9536L69.1579 46.3509C69.0826 45.8951 69.2333 45.4393 69.5648 45.1305L71.5085 43.2777L68.8264 42.8954C68.3593 42.8366 67.9676 42.5425 67.7566 42.1308L66.5512 39.7634L65.3458 42.1308C65.1348 42.5425 64.7431 42.8219 64.276 42.8954L61.5939 43.2777Z" fill="#A147A1"/>
  <path d="M80.2478 32.4113L75.9685 30.2204L71.6893 32.4113C70.6496 32.9407 69.4291 32.0878 69.625 30.9556L70.4387 26.2944L66.9731 23.0006C66.1293 22.2066 66.5964 20.795 67.7566 20.6333L72.5482 19.9569L74.6878 15.722C75.2001 14.6927 76.7069 14.6927 77.2342 15.722L79.3739 19.9569L84.1654 20.6333C85.3256 20.795 85.7927 22.1919 84.9489 23.0006L81.4833 26.2944L82.297 30.9556C82.3874 31.4703 82.1765 31.9996 81.7395 32.3084C81.3025 32.6172 80.73 32.6613 80.2478 32.4113ZM71.0113 22.9712L72.955 24.824C73.2865 25.1474 73.4372 25.6033 73.3618 26.0444L72.9098 28.6471L75.3056 27.4119C75.7124 27.206 76.2096 27.206 76.6315 27.4119L79.0273 28.6471L78.5753 26.0444C78.4999 25.5886 78.6506 25.1327 78.9821 24.824L80.9258 22.9712L78.2438 22.5889C77.7767 22.5301 77.3849 22.236 77.174 21.8243L75.9685 19.4569L74.7631 21.8243C74.5522 22.236 74.1604 22.5154 73.6933 22.5889L71.0113 22.9712Z" fill="#A147A1"/>
  <path d="M42.6085 23.7653C38.3745 23.7653 34.924 20.398 34.924 16.2661C34.924 12.1342 38.3745 8.76697 42.6085 8.76697C46.8426 8.76697 50.2931 12.1342 50.2931 16.2661C50.278 20.398 46.8275 23.7653 42.6085 23.7653ZM42.6085 11.5461C39.9415 11.5461 37.7718 13.6635 37.7718 16.2661C37.7718 18.8688 39.9415 20.9862 42.6085 20.9862C45.2755 20.9862 47.4453 18.8688 47.4453 16.2661C47.4453 13.6635 45.2755 11.5461 42.6085 11.5461Z" fill="#A147A1"/>
  <path d="M55.7928 30.3234C52.719 26.2209 47.7918 23.7653 42.5935 23.7653C37.3951 23.7653 32.4529 26.2209 29.379 30.3234C28.9119 30.941 28.0229 31.0733 27.3901 30.6322C26.7572 30.1763 26.6216 29.3088 27.0737 28.6912C30.6749 23.8682 36.4609 20.9862 42.5633 20.9862C48.6658 20.9862 54.4518 23.8682 58.053 28.6912C58.5201 29.3088 58.3694 30.1763 57.7366 30.6322C57.1489 31.088 56.2449 30.941 55.7928 30.3234Z" fill="#A147A1"/>
  <path d="M42.6085 38.0284C32.046 38.0284 23.4423 29.6323 23.4423 19.3246C23.4423 9.01696 32.031 0.62085 42.6085 0.62085C53.1861 0.62085 61.7747 9.01696 61.7747 19.3246C61.7747 29.6323 53.156 38.0284 42.6085 38.0284ZM42.6085 3.38524C33.6131 3.38524 26.2751 10.5315 26.2751 19.3246C26.2751 28.1177 33.598 35.264 42.6085 35.264C51.619 35.264 58.9269 28.103 58.9269 19.3246C58.9269 10.5462 51.604 3.38524 42.6085 3.38524Z" fill="#A147A1"/>
</svg>