<svg width="67" height="69" viewBox="0 0 67 69" fill="none" xmlns="http://www.w3.org/2000/svg">
  <mask id="path-1-outside-1_1_193" maskUnits="userSpaceOnUse" x="0" y="0" width="67" height="69" fill="black">
    <rect fill="white" width="67" height="69"/>
    <path fill-rule="evenodd" clip-rule="evenodd" d="M44.992 20.3446H16.5318C16.0715 20.3446 15.6879 20.0459 15.6879 19.5977C15.6879 19.1496 15.9948 18.7761 16.4551 18.7761C16.4551 18.7761 16.4551 18.7761 16.5318 18.7761H44.992C45.4522 18.7761 45.7591 19.1496 45.7591 19.5977C45.7591 20.0459 45.3755 20.3446 44.992 20.3446ZM57.8796 60.5277C57.8796 61.4986 56.9591 62.3202 55.7317 62.5443V58.4364C56.9591 58.7351 57.8796 59.5567 57.8796 60.5277ZM51.8961 54.7019C51.8961 53.7309 52.8166 52.9093 54.044 52.6852V56.7932C52.8166 56.4944 51.8961 55.6728 51.8961 54.7019ZM57.8796 54.7019C57.8796 55.15 58.2632 55.5235 58.7234 55.5235C59.1837 55.5235 59.5673 55.15 59.5673 54.7019C59.5673 52.9093 57.9563 51.3408 55.8084 51.0421V50.5192C55.8084 50.0711 55.5015 49.6977 55.0413 49.6977C54.581 49.6977 54.1974 49.9964 54.1974 50.4446C54.1974 50.4446 54.1974 50.4446 54.1974 50.5192V51.0421C52.0495 51.3408 50.4385 52.8346 50.4385 54.7019C50.4385 56.5691 52.0495 58.0629 54.1974 58.3617V62.619C52.97 62.3949 52.0495 61.5733 52.0495 60.6024C52.0495 60.1542 51.6659 59.8555 51.2057 59.8555C50.7454 59.8555 50.4385 60.2289 50.4385 60.6024C50.4385 62.3949 52.0495 63.9634 54.1974 64.2621V64.785C54.1974 65.2331 54.5043 65.6066 54.9645 65.6066C55.4248 65.6066 55.8084 65.3078 55.8084 64.8597C55.8084 64.8597 55.8084 64.8597 55.8084 64.785V64.1128C57.9563 63.814 59.5673 62.3202 59.5673 60.453C59.5673 58.5857 57.9563 57.0919 55.8084 56.7932V52.5359C56.9591 52.9093 57.8796 53.7309 57.8796 54.7019ZM54.8878 66.6522C60.0275 66.6522 64.17 62.619 64.17 57.6148C64.17 52.6106 60.0275 48.5773 54.8878 48.5773C49.7481 48.5773 45.6057 52.6106 45.6057 57.6148C45.6057 62.619 49.7481 66.6522 54.8878 66.6522ZM42.0002 59.2579V45.0669H46.5262V50.818C44.9153 52.6852 43.9947 55.15 43.9947 57.6148C43.9947 58.1376 44.0714 58.7351 44.1481 59.2579H42.0002ZM38.0112 56.9426H40.3892V44.2453C40.3892 43.7972 40.7728 43.4237 41.2331 43.4237H47.37C47.8303 43.4237 48.2139 43.7972 48.2139 44.2453V49.2495C48.9043 48.652 49.7481 48.2039 50.592 47.8304V37.3739C50.592 36.9257 50.9755 36.5523 51.4358 36.5523H51.5125V33.49L44.992 39.6892C44.7618 39.9133 44.3016 39.988 43.9947 39.7639L34.4057 33.8635L22.592 43.9466C22.2852 44.2453 21.7482 44.1706 21.4413 43.8719C21.1345 43.5731 21.2112 43.0503 21.5181 42.7515L33.5619 32.3697C33.8687 32.1456 34.2523 32.1456 34.5591 32.295L44.1481 38.1208L52.3563 30.353H49.4413C48.981 30.353 48.5974 29.9796 48.5974 29.6061C48.5974 29.2327 48.981 28.7846 49.3646 28.7846H51.3591V16.0126H40.0057C38.6249 16.0126 37.4742 14.8923 37.4742 13.5479V10.1868H16.5318C16.0715 10.1868 15.6879 9.88807 15.6879 9.43993C15.6879 8.99179 15.9948 8.61835 16.4551 8.61835C16.4551 8.61835 16.4551 8.61835 16.5318 8.61835H37.5509V2.56848H11.0852C10.5482 2.56848 10.1647 2.94193 10.1647 3.46476V29.2327L17.529 38.4195C17.8359 38.793 17.7592 39.2411 17.3756 39.5399C17.2222 39.6146 17.0688 39.6892 16.9153 39.6892H13.0797V51.1914C13.0797 51.6396 12.6962 52.013 12.2359 52.013H10.1647V56.121C10.1647 56.6438 10.5482 57.0172 11.0852 57.0172H20.1372V47.8304C20.1372 47.3823 20.5208 47.0088 20.9811 47.0088H27.118C27.5783 47.0088 27.9619 47.3823 27.9619 47.8304V57.0172H30.34V40.7349C30.34 40.2868 30.7235 39.9133 31.1838 39.9133H37.3208C37.781 39.9133 38.1646 40.2868 38.1646 40.7349L38.0112 56.9426ZM36.4002 59.2579H31.8742V41.5565H36.4002V59.2579ZM26.2742 59.2579H21.7482V48.5773H26.2742V59.2579ZM6.48248 38.1208H3.4907L9.32083 30.8012L15.1509 38.1208H12.1592C11.6989 38.1208 11.3153 38.4942 11.3153 38.9423V50.4446H7.2496V38.9423C7.32631 38.4942 6.94275 38.1208 6.48248 38.1208ZM39.1618 3.83821L50.2851 14.5188H40.0057C39.4687 14.5188 39.0851 14.1454 39.0851 13.6226V3.83821H39.1618ZM56.5755 47.0835C55.0413 46.8595 53.507 46.9341 52.0495 47.3076V38.1954H56.5755V47.0835ZM58.1865 47.457V37.3739C58.1865 36.9257 57.8029 36.5523 57.3426 36.5523H52.97V31.9962L53.2769 31.6975L52.97 34.3863C52.8933 34.8344 53.2769 35.2079 53.6604 35.2826H53.7372C54.1207 35.2826 54.5043 34.9838 54.5043 34.6103L55.0413 29.7555C55.118 29.3074 54.7344 28.9339 54.3509 28.8592H54.2741H52.8933V15.1163C52.8933 14.8923 52.8166 14.6682 52.6632 14.5188L38.7783 1.22407C38.6249 1.07469 38.3947 1 38.2413 1H11.0852C9.70439 1 8.5537 2.12035 8.5537 3.46476V29.2327L1.18934 38.4195C0.882491 38.793 0.959203 39.2411 1.34276 39.5399C1.49619 39.6146 1.64961 39.6892 1.80304 39.6892H5.63864V51.1914C5.63864 51.6396 6.0222 52.013 6.48248 52.013H8.5537V56.121C8.5537 57.4654 9.70439 58.5857 11.0852 58.5857H20.1372V60.0795C20.1372 60.5277 20.5208 60.9011 20.9811 60.9011H27.118C27.5783 60.9011 27.9619 60.5277 27.9619 60.0795V58.5857H30.34V60.0795C30.34 60.5277 30.7235 60.8264 31.1838 60.9011H37.3208C37.781 60.9011 38.1646 60.5277 38.1646 60.0795V58.5857H40.5427V60.0795C40.5427 60.5277 40.9262 60.9011 41.3865 60.9011H44.6851C46.5262 66.5028 52.6632 69.5651 58.4166 67.7726C64.17 65.98 67.3152 60.0048 65.4741 54.4031C64.2467 51.0421 61.5618 48.5026 58.1865 47.457ZM26.8112 27.8136V23.9297C28.8057 24.3032 30.4167 25.797 30.8002 27.8136H26.8112ZM25.9674 22.2866C29.5728 22.2866 32.4112 25.1248 32.4112 28.5605C32.4112 29.0086 32.0276 29.3821 31.5673 29.3821H25.8906C25.4304 29.3821 25.0468 29.0086 25.0468 28.5605V23.0335C25.2002 22.66 25.5838 22.2866 25.9674 22.2866ZM18.9098 30.8012C18.9098 28.4858 20.5975 26.5439 22.9756 26.1704V30.8012C22.9756 31.2493 23.3591 31.6228 23.8194 31.6228H28.5756C28.1153 34.1622 25.6605 35.9548 22.9756 35.5066C20.5975 35.0585 18.9098 33.0419 18.9098 30.8012ZM30.2632 30.8012C30.2632 34.3116 27.3482 37.0751 23.8194 37.0751C20.2139 37.0751 17.3756 34.2369 17.3756 30.8012C17.3756 27.2908 20.2907 24.5272 23.8194 24.5272C24.2797 24.5272 24.6633 24.9007 24.6633 25.3488V30.0543H29.4961C29.8797 29.9796 30.2632 30.353 30.2632 30.8012Z"/>
  </mask>
  <path fill-rule="evenodd" clip-rule="evenodd" d="M44.992 20.3446H16.5318C16.0715 20.3446 15.6879 20.0459 15.6879 19.5977C15.6879 19.1496 15.9948 18.7761 16.4551 18.7761C16.4551 18.7761 16.4551 18.7761 16.5318 18.7761H44.992C45.4522 18.7761 45.7591 19.1496 45.7591 19.5977C45.7591 20.0459 45.3755 20.3446 44.992 20.3446ZM57.8796 60.5277C57.8796 61.4986 56.9591 62.3202 55.7317 62.5443V58.4364C56.9591 58.7351 57.8796 59.5567 57.8796 60.5277ZM51.8961 54.7019C51.8961 53.7309 52.8166 52.9093 54.044 52.6852V56.7932C52.8166 56.4944 51.8961 55.6728 51.8961 54.7019ZM57.8796 54.7019C57.8796 55.15 58.2632 55.5235 58.7234 55.5235C59.1837 55.5235 59.5673 55.15 59.5673 54.7019C59.5673 52.9093 57.9563 51.3408 55.8084 51.0421V50.5192C55.8084 50.0711 55.5015 49.6977 55.0413 49.6977C54.581 49.6977 54.1974 49.9964 54.1974 50.4446C54.1974 50.4446 54.1974 50.4446 54.1974 50.5192V51.0421C52.0495 51.3408 50.4385 52.8346 50.4385 54.7019C50.4385 56.5691 52.0495 58.0629 54.1974 58.3617V62.619C52.97 62.3949 52.0495 61.5733 52.0495 60.6024C52.0495 60.1542 51.6659 59.8555 51.2057 59.8555C50.7454 59.8555 50.4385 60.2289 50.4385 60.6024C50.4385 62.3949 52.0495 63.9634 54.1974 64.2621V64.785C54.1974 65.2331 54.5043 65.6066 54.9645 65.6066C55.4248 65.6066 55.8084 65.3078 55.8084 64.8597C55.8084 64.8597 55.8084 64.8597 55.8084 64.785V64.1128C57.9563 63.814 59.5673 62.3202 59.5673 60.453C59.5673 58.5857 57.9563 57.0919 55.8084 56.7932V52.5359C56.9591 52.9093 57.8796 53.7309 57.8796 54.7019ZM54.8878 66.6522C60.0275 66.6522 64.17 62.619 64.17 57.6148C64.17 52.6106 60.0275 48.5773 54.8878 48.5773C49.7481 48.5773 45.6057 52.6106 45.6057 57.6148C45.6057 62.619 49.7481 66.6522 54.8878 66.6522ZM42.0002 59.2579V45.0669H46.5262V50.818C44.9153 52.6852 43.9947 55.15 43.9947 57.6148C43.9947 58.1376 44.0714 58.7351 44.1481 59.2579H42.0002ZM38.0112 56.9426H40.3892V44.2453C40.3892 43.7972 40.7728 43.4237 41.2331 43.4237H47.37C47.8303 43.4237 48.2139 43.7972 48.2139 44.2453V49.2495C48.9043 48.652 49.7481 48.2039 50.592 47.8304V37.3739C50.592 36.9257 50.9755 36.5523 51.4358 36.5523H51.5125V33.49L44.992 39.6892C44.7618 39.9133 44.3016 39.988 43.9947 39.7639L34.4057 33.8635L22.592 43.9466C22.2852 44.2453 21.7482 44.1706 21.4413 43.8719C21.1345 43.5731 21.2112 43.0503 21.5181 42.7515L33.5619 32.3697C33.8687 32.1456 34.2523 32.1456 34.5591 32.295L44.1481 38.1208L52.3563 30.353H49.4413C48.981 30.353 48.5974 29.9796 48.5974 29.6061C48.5974 29.2327 48.981 28.7846 49.3646 28.7846H51.3591V16.0126H40.0057C38.6249 16.0126 37.4742 14.8923 37.4742 13.5479V10.1868H16.5318C16.0715 10.1868 15.6879 9.88807 15.6879 9.43993C15.6879 8.99179 15.9948 8.61835 16.4551 8.61835C16.4551 8.61835 16.4551 8.61835 16.5318 8.61835H37.5509V2.56848H11.0852C10.5482 2.56848 10.1647 2.94193 10.1647 3.46476V29.2327L17.529 38.4195C17.8359 38.793 17.7592 39.2411 17.3756 39.5399C17.2222 39.6146 17.0688 39.6892 16.9153 39.6892H13.0797V51.1914C13.0797 51.6396 12.6962 52.013 12.2359 52.013H10.1647V56.121C10.1647 56.6438 10.5482 57.0172 11.0852 57.0172H20.1372V47.8304C20.1372 47.3823 20.5208 47.0088 20.9811 47.0088H27.118C27.5783 47.0088 27.9619 47.3823 27.9619 47.8304V57.0172H30.34V40.7349C30.34 40.2868 30.7235 39.9133 31.1838 39.9133H37.3208C37.781 39.9133 38.1646 40.2868 38.1646 40.7349L38.0112 56.9426ZM36.4002 59.2579H31.8742V41.5565H36.4002V59.2579ZM26.2742 59.2579H21.7482V48.5773H26.2742V59.2579ZM6.48248 38.1208H3.4907L9.32083 30.8012L15.1509 38.1208H12.1592C11.6989 38.1208 11.3153 38.4942 11.3153 38.9423V50.4446H7.2496V38.9423C7.32631 38.4942 6.94275 38.1208 6.48248 38.1208ZM39.1618 3.83821L50.2851 14.5188H40.0057C39.4687 14.5188 39.0851 14.1454 39.0851 13.6226V3.83821H39.1618ZM56.5755 47.0835C55.0413 46.8595 53.507 46.9341 52.0495 47.3076V38.1954H56.5755V47.0835ZM58.1865 47.457V37.3739C58.1865 36.9257 57.8029 36.5523 57.3426 36.5523H52.97V31.9962L53.2769 31.6975L52.97 34.3863C52.8933 34.8344 53.2769 35.2079 53.6604 35.2826H53.7372C54.1207 35.2826 54.5043 34.9838 54.5043 34.6103L55.0413 29.7555C55.118 29.3074 54.7344 28.9339 54.3509 28.8592H54.2741H52.8933V15.1163C52.8933 14.8923 52.8166 14.6682 52.6632 14.5188L38.7783 1.22407C38.6249 1.07469 38.3947 1 38.2413 1H11.0852C9.70439 1 8.5537 2.12035 8.5537 3.46476V29.2327L1.18934 38.4195C0.882491 38.793 0.959203 39.2411 1.34276 39.5399C1.49619 39.6146 1.64961 39.6892 1.80304 39.6892H5.63864V51.1914C5.63864 51.6396 6.0222 52.013 6.48248 52.013H8.5537V56.121C8.5537 57.4654 9.70439 58.5857 11.0852 58.5857H20.1372V60.0795C20.1372 60.5277 20.5208 60.9011 20.9811 60.9011H27.118C27.5783 60.9011 27.9619 60.5277 27.9619 60.0795V58.5857H30.34V60.0795C30.34 60.5277 30.7235 60.8264 31.1838 60.9011H37.3208C37.781 60.9011 38.1646 60.5277 38.1646 60.0795V58.5857H40.5427V60.0795C40.5427 60.5277 40.9262 60.9011 41.3865 60.9011H44.6851C46.5262 66.5028 52.6632 69.5651 58.4166 67.7726C64.17 65.98 67.3152 60.0048 65.4741 54.4031C64.2467 51.0421 61.5618 48.5026 58.1865 47.457ZM26.8112 27.8136V23.9297C28.8057 24.3032 30.4167 25.797 30.8002 27.8136H26.8112ZM25.9674 22.2866C29.5728 22.2866 32.4112 25.1248 32.4112 28.5605C32.4112 29.0086 32.0276 29.3821 31.5673 29.3821H25.8906C25.4304 29.3821 25.0468 29.0086 25.0468 28.5605V23.0335C25.2002 22.66 25.5838 22.2866 25.9674 22.2866ZM18.9098 30.8012C18.9098 28.4858 20.5975 26.5439 22.9756 26.1704V30.8012C22.9756 31.2493 23.3591 31.6228 23.8194 31.6228H28.5756C28.1153 34.1622 25.6605 35.9548 22.9756 35.5066C20.5975 35.0585 18.9098 33.0419 18.9098 30.8012ZM30.2632 30.8012C30.2632 34.3116 27.3482 37.0751 23.8194 37.0751C20.2139 37.0751 17.3756 34.2369 17.3756 30.8012C17.3756 27.2908 20.2907 24.5272 23.8194 24.5272C24.2797 24.5272 24.6633 24.9007 24.6633 25.3488V30.0543H29.4961C29.8797 29.9796 30.2632 30.353 30.2632 30.8012Z" fill="#349D9E"/>
  <path fill-rule="evenodd" clip-rule="evenodd" d="M44.992 20.3446H16.5318C16.0715 20.3446 15.6879 20.0459 15.6879 19.5977C15.6879 19.1496 15.9948 18.7761 16.4551 18.7761C16.4551 18.7761 16.4551 18.7761 16.5318 18.7761H44.992C45.4522 18.7761 45.7591 19.1496 45.7591 19.5977C45.7591 20.0459 45.3755 20.3446 44.992 20.3446ZM57.8796 60.5277C57.8796 61.4986 56.9591 62.3202 55.7317 62.5443V58.4364C56.9591 58.7351 57.8796 59.5567 57.8796 60.5277ZM51.8961 54.7019C51.8961 53.7309 52.8166 52.9093 54.044 52.6852V56.7932C52.8166 56.4944 51.8961 55.6728 51.8961 54.7019ZM57.8796 54.7019C57.8796 55.15 58.2632 55.5235 58.7234 55.5235C59.1837 55.5235 59.5673 55.15 59.5673 54.7019C59.5673 52.9093 57.9563 51.3408 55.8084 51.0421V50.5192C55.8084 50.0711 55.5015 49.6977 55.0413 49.6977C54.581 49.6977 54.1974 49.9964 54.1974 50.4446C54.1974 50.4446 54.1974 50.4446 54.1974 50.5192V51.0421C52.0495 51.3408 50.4385 52.8346 50.4385 54.7019C50.4385 56.5691 52.0495 58.0629 54.1974 58.3617V62.619C52.97 62.3949 52.0495 61.5733 52.0495 60.6024C52.0495 60.1542 51.6659 59.8555 51.2057 59.8555C50.7454 59.8555 50.4385 60.2289 50.4385 60.6024C50.4385 62.3949 52.0495 63.9634 54.1974 64.2621V64.785C54.1974 65.2331 54.5043 65.6066 54.9645 65.6066C55.4248 65.6066 55.8084 65.3078 55.8084 64.8597C55.8084 64.8597 55.8084 64.8597 55.8084 64.785V64.1128C57.9563 63.814 59.5673 62.3202 59.5673 60.453C59.5673 58.5857 57.9563 57.0919 55.8084 56.7932V52.5359C56.9591 52.9093 57.8796 53.7309 57.8796 54.7019ZM54.8878 66.6522C60.0275 66.6522 64.17 62.619 64.17 57.6148C64.17 52.6106 60.0275 48.5773 54.8878 48.5773C49.7481 48.5773 45.6057 52.6106 45.6057 57.6148C45.6057 62.619 49.7481 66.6522 54.8878 66.6522ZM42.0002 59.2579V45.0669H46.5262V50.818C44.9153 52.6852 43.9947 55.15 43.9947 57.6148C43.9947 58.1376 44.0714 58.7351 44.1481 59.2579H42.0002ZM38.0112 56.9426H40.3892V44.2453C40.3892 43.7972 40.7728 43.4237 41.2331 43.4237H47.37C47.8303 43.4237 48.2139 43.7972 48.2139 44.2453V49.2495C48.9043 48.652 49.7481 48.2039 50.592 47.8304V37.3739C50.592 36.9257 50.9755 36.5523 51.4358 36.5523H51.5125V33.49L44.992 39.6892C44.7618 39.9133 44.3016 39.988 43.9947 39.7639L34.4057 33.8635L22.592 43.9466C22.2852 44.2453 21.7482 44.1706 21.4413 43.8719C21.1345 43.5731 21.2112 43.0503 21.5181 42.7515L33.5619 32.3697C33.8687 32.1456 34.2523 32.1456 34.5591 32.295L44.1481 38.1208L52.3563 30.353H49.4413C48.981 30.353 48.5974 29.9796 48.5974 29.6061C48.5974 29.2327 48.981 28.7846 49.3646 28.7846H51.3591V16.0126H40.0057C38.6249 16.0126 37.4742 14.8923 37.4742 13.5479V10.1868H16.5318C16.0715 10.1868 15.6879 9.88807 15.6879 9.43993C15.6879 8.99179 15.9948 8.61835 16.4551 8.61835C16.4551 8.61835 16.4551 8.61835 16.5318 8.61835H37.5509V2.56848H11.0852C10.5482 2.56848 10.1647 2.94193 10.1647 3.46476V29.2327L17.529 38.4195C17.8359 38.793 17.7592 39.2411 17.3756 39.5399C17.2222 39.6146 17.0688 39.6892 16.9153 39.6892H13.0797V51.1914C13.0797 51.6396 12.6962 52.013 12.2359 52.013H10.1647V56.121C10.1647 56.6438 10.5482 57.0172 11.0852 57.0172H20.1372V47.8304C20.1372 47.3823 20.5208 47.0088 20.9811 47.0088H27.118C27.5783 47.0088 27.9619 47.3823 27.9619 47.8304V57.0172H30.34V40.7349C30.34 40.2868 30.7235 39.9133 31.1838 39.9133H37.3208C37.781 39.9133 38.1646 40.2868 38.1646 40.7349L38.0112 56.9426ZM36.4002 59.2579H31.8742V41.5565H36.4002V59.2579ZM26.2742 59.2579H21.7482V48.5773H26.2742V59.2579ZM6.48248 38.1208H3.4907L9.32083 30.8012L15.1509 38.1208H12.1592C11.6989 38.1208 11.3153 38.4942 11.3153 38.9423V50.4446H7.2496V38.9423C7.32631 38.4942 6.94275 38.1208 6.48248 38.1208ZM39.1618 3.83821L50.2851 14.5188H40.0057C39.4687 14.5188 39.0851 14.1454 39.0851 13.6226V3.83821H39.1618ZM56.5755 47.0835C55.0413 46.8595 53.507 46.9341 52.0495 47.3076V38.1954H56.5755V47.0835ZM58.1865 47.457V37.3739C58.1865 36.9257 57.8029 36.5523 57.3426 36.5523H52.97V31.9962L53.2769 31.6975L52.97 34.3863C52.8933 34.8344 53.2769 35.2079 53.6604 35.2826H53.7372C54.1207 35.2826 54.5043 34.9838 54.5043 34.6103L55.0413 29.7555C55.118 29.3074 54.7344 28.9339 54.3509 28.8592H54.2741H52.8933V15.1163C52.8933 14.8923 52.8166 14.6682 52.6632 14.5188L38.7783 1.22407C38.6249 1.07469 38.3947 1 38.2413 1H11.0852C9.70439 1 8.5537 2.12035 8.5537 3.46476V29.2327L1.18934 38.4195C0.882491 38.793 0.959203 39.2411 1.34276 39.5399C1.49619 39.6146 1.64961 39.6892 1.80304 39.6892H5.63864V51.1914C5.63864 51.6396 6.0222 52.013 6.48248 52.013H8.5537V56.121C8.5537 57.4654 9.70439 58.5857 11.0852 58.5857H20.1372V60.0795C20.1372 60.5277 20.5208 60.9011 20.9811 60.9011H27.118C27.5783 60.9011 27.9619 60.5277 27.9619 60.0795V58.5857H30.34V60.0795C30.34 60.5277 30.7235 60.8264 31.1838 60.9011H37.3208C37.781 60.9011 38.1646 60.5277 38.1646 60.0795V58.5857H40.5427V60.0795C40.5427 60.5277 40.9262 60.9011 41.3865 60.9011H44.6851C46.5262 66.5028 52.6632 69.5651 58.4166 67.7726C64.17 65.98 67.3152 60.0048 65.4741 54.4031C64.2467 51.0421 61.5618 48.5026 58.1865 47.457ZM26.8112 27.8136V23.9297C28.8057 24.3032 30.4167 25.797 30.8002 27.8136H26.8112ZM25.9674 22.2866C29.5728 22.2866 32.4112 25.1248 32.4112 28.5605C32.4112 29.0086 32.0276 29.3821 31.5673 29.3821H25.8906C25.4304 29.3821 25.0468 29.0086 25.0468 28.5605V23.0335C25.2002 22.66 25.5838 22.2866 25.9674 22.2866ZM18.9098 30.8012C18.9098 28.4858 20.5975 26.5439 22.9756 26.1704V30.8012C22.9756 31.2493 23.3591 31.6228 23.8194 31.6228H28.5756C28.1153 34.1622 25.6605 35.9548 22.9756 35.5066C20.5975 35.0585 18.9098 33.0419 18.9098 30.8012ZM30.2632 30.8012C30.2632 34.3116 27.3482 37.0751 23.8194 37.0751C20.2139 37.0751 17.3756 34.2369 17.3756 30.8012C17.3756 27.2908 20.2907 24.5272 23.8194 24.5272C24.2797 24.5272 24.6633 24.9007 24.6633 25.3488V30.0543H29.4961C29.8797 29.9796 30.2632 30.353 30.2632 30.8012Z" stroke="#349D9E" stroke-width="0.6" mask="url(#path-1-outside-1_1_193)"/>
</svg>