<svg width="65" height="68" viewBox="0 0 65 68" fill="none" xmlns="http://www.w3.org/2000/svg">
  <path d="M51.0689 36.7369C51.8124 35.454 51.4797 34.0133 51.1869 32.7442C51.0413 32.1134 50.8604 31.328 50.957 30.9652C51.0428 30.6452 51.5748 30.0772 52.001 29.6226C52.8656 28.7024 53.9387 27.5573 53.9387 26.0263C53.9387 24.4954 52.864 23.3502 52.001 22.4301C51.5748 21.9754 51.0428 21.409 50.9554 21.0875C50.8589 20.7261 51.0413 19.9408 51.1854 19.31C51.4782 18.0393 51.8109 16.6002 51.0673 15.3173C50.3146 14.019 48.8889 13.5857 47.6303 13.2045C47.0186 13.0178 46.2567 12.7881 46.0053 12.5355C45.7539 12.2844 45.5239 11.5251 45.3369 10.9142C44.9537 9.6573 44.5214 8.23351 43.2198 7.4818C42.1452 6.8587 40.5846 7.04854 39.2217 7.36239C38.4935 7.52926 37.6243 7.63949 37.4403 7.59203C37.1199 7.5063 36.5512 6.97506 36.0959 6.54945C35.1791 5.68752 34.0324 4.61431 32.4994 4.61431C30.9664 4.61431 29.8197 5.68752 28.8984 6.54945C28.4431 6.97506 27.8758 7.5063 27.5539 7.59356C27.3715 7.63949 26.5007 7.52926 25.7741 7.36392C24.4128 7.05007 22.8491 6.86176 21.776 7.4818C20.4744 8.23351 20.0421 9.6573 19.6589 10.9127C19.4718 11.5235 19.2419 12.2844 18.9889 12.5355C18.7375 12.7866 17.9771 13.0178 17.3655 13.203C16.1069 13.5857 14.6812 14.0175 13.9284 15.3173C13.1834 16.6002 13.5161 18.0408 13.8089 19.31C13.9545 19.9408 14.1354 20.7261 14.0388 21.089C13.953 21.409 13.421 21.9769 12.9948 22.4316C12.1333 23.3502 11.0586 24.4954 11.0586 26.0263C11.0586 27.5573 12.1333 28.7024 12.9964 29.6226C13.4225 30.0772 13.9545 30.6437 14.0419 30.9652C14.1385 31.3265 13.956 32.1119 13.8119 32.7426C13.5191 34.0133 13.1865 35.4525 13.93 36.7354C14.6827 38.0352 16.1084 38.4684 17.367 38.8497C17.9787 39.0364 18.7391 39.2661 18.9905 39.5172C19.2419 39.7682 19.4734 40.5291 19.6589 41.14C20.0421 42.3954 20.4744 43.8191 21.776 44.5724C22.8506 45.1924 24.4112 45.0026 25.7741 44.6903C26.5007 44.5234 27.3715 44.4116 27.5554 44.4606C27.8758 44.5464 28.4446 45.0776 28.8999 45.5032C29.8197 46.3651 30.9664 47.4368 32.4994 47.4368C34.0324 47.4368 35.1791 46.3636 36.1005 45.5017C36.5558 45.0761 37.123 44.5448 37.4449 44.4576C37.6274 44.407 38.4997 44.5203 39.2248 44.6872C40.5876 45.001 42.1482 45.1909 43.2229 44.5693C44.5244 43.8176 44.9567 42.3938 45.3385 41.1369C45.5255 40.5261 45.7554 39.7667 46.0069 39.5156C46.2583 39.2645 47.0186 39.0334 47.6303 38.8481C48.8889 38.4684 50.3162 38.0352 51.0689 36.7369ZM48.1991 33.4316C48.3232 33.9674 48.5532 34.9625 48.4152 35.2014C48.2665 35.457 47.3115 35.7464 46.7396 35.9194C45.7524 36.2179 44.6333 36.5578 43.8392 37.3508C43.0451 38.1439 42.7047 39.2615 42.4043 40.2474C42.231 40.8185 41.9398 41.7738 41.6868 41.9192C41.6837 41.9208 41.6194 41.9575 41.4078 41.9575C41.0123 41.9575 40.4527 41.8289 39.9131 41.7034C38.84 41.4553 37.632 41.2349 36.6539 41.4982C35.5885 41.783 34.7468 42.5699 34.0033 43.2649C33.5327 43.7059 32.8198 44.3734 32.4994 44.3734C32.179 44.3734 31.4662 43.7059 30.9955 43.2649C30.252 42.5699 29.4104 41.7814 28.3449 41.4982C28.0169 41.4109 27.6735 41.3681 27.2918 41.3681C26.536 41.3681 25.7971 41.538 25.0827 41.7034C24.5415 41.8289 23.9835 41.9575 23.588 41.9575C23.378 41.9575 23.3105 41.9208 23.3105 41.9208C23.0545 41.7723 22.7648 40.8185 22.5915 40.2474C22.2911 39.2615 21.9523 38.1439 21.1566 37.3508C20.3625 36.5578 19.2434 36.2179 18.2562 35.9179C17.6843 35.7449 16.7293 35.454 16.5821 35.1998C16.4426 34.961 16.6741 33.9644 16.7967 33.4285C17.0297 32.4166 17.295 31.2699 17.0021 30.1737C16.717 29.1097 15.929 28.2692 15.233 27.5267C14.7915 27.0567 14.1231 26.3448 14.1231 26.0248C14.1231 25.7048 14.7915 24.9929 15.233 24.5229C15.929 23.7804 16.7185 22.9399 17.0021 21.8759C17.295 20.7782 17.0313 19.6315 16.7967 18.6195C16.6725 18.0837 16.4441 17.087 16.5821 16.8482C16.7293 16.5941 17.6859 16.3047 18.2562 16.1302C19.2434 15.8301 20.3625 15.4918 21.1566 14.6988C21.9507 13.9057 22.2911 12.7881 22.5915 11.8022C22.7648 11.2311 23.056 10.2773 23.3105 10.1304C23.3105 10.1304 23.378 10.0921 23.5895 10.0921C23.985 10.0921 24.5446 10.2207 25.0842 10.3462C26.1573 10.5927 27.3638 10.8101 28.3434 10.5514C29.4089 10.2666 30.2505 9.47971 30.994 8.78465C31.4662 8.34373 32.179 7.67624 32.4994 7.67624C32.8198 7.67624 33.5327 8.34373 34.0033 8.78465C34.7468 9.47971 35.5885 10.2682 36.6539 10.5514C37.635 10.8132 38.84 10.5942 39.9146 10.3462C40.4558 10.2222 41.0138 10.0921 41.4093 10.0921C41.6209 10.0921 41.6853 10.1288 41.6899 10.1304C41.9444 10.2773 42.2341 11.2327 42.4089 11.8022C42.7078 12.7881 43.0481 13.9057 43.8422 14.6988C44.6363 15.4918 45.7554 15.8317 46.7442 16.1317C47.316 16.3047 48.2711 16.5956 48.4183 16.8482C48.5563 17.087 48.3263 18.0837 48.2021 18.6195C47.9691 19.6315 47.7039 20.7782 47.9967 21.8744C48.2818 22.9384 49.0698 23.7789 49.7658 24.5214C50.2073 24.9914 50.8757 25.7033 50.8757 26.0233C50.8757 26.3432 50.2073 27.0551 49.7658 27.5251C49.0698 28.2677 48.2803 29.1082 47.9967 30.1722C47.7008 31.2729 47.966 32.4196 48.1991 33.4316ZM43.8192 20.3909H36.286L33.9573 13.2367C33.7519 12.6059 33.1632 12.1788 32.4994 12.1788C31.8356 12.1788 31.247 12.6059 31.0415 13.2367L28.7129 20.3909H21.1781C20.5143 20.3909 19.9256 20.818 19.7202 21.4488C19.5148 22.0795 19.7401 22.77 20.2767 23.1604L26.372 27.5833L24.0433 34.739C23.8379 35.3698 24.0632 36.0602 24.5998 36.4506C25.1363 36.841 25.8645 36.8426 26.4026 36.4506L32.4994 32.0277L38.5947 36.4506C38.863 36.6466 39.1788 36.743 39.4946 36.743C39.8104 36.743 40.1277 36.6466 40.396 36.4506C40.9341 36.0602 41.1579 35.3698 40.9525 34.739L38.6238 27.5833L44.7191 23.1604C45.2572 22.77 45.481 22.0795 45.2756 21.4488C45.0702 20.818 44.483 20.3909 43.8192 20.3909ZM35.9211 25.7599C35.383 26.1503 35.1592 26.8408 35.3646 27.4716L36.5788 31.204L33.4008 28.8984C33.1326 28.704 32.8152 28.606 32.4994 28.606C32.1836 28.606 31.8663 28.7024 31.598 28.8984L28.4201 31.204L29.6342 27.4716C29.8396 26.8408 29.6143 26.1503 29.0777 25.7599L25.8983 23.4528H29.8274C30.4912 23.4528 31.0799 23.0256 31.2853 22.3949L32.4994 18.6639L33.7136 22.3964C33.919 23.0272 34.5077 23.4543 35.1715 23.4543H39.1006L35.9211 25.7599ZM64.6821 57.4125L52.9315 42.132C56.4452 37.6968 58.5607 32.1088 58.5607 26.0263C58.5607 11.6751 46.8699 0 32.4994 0C18.1289 0 6.43812 11.6751 6.43812 26.0263C6.43812 32.1088 8.55368 37.6968 12.0674 42.132L0.316778 57.4125C-0.0726087 57.9193 -0.106335 58.6159 0.233995 59.1578C0.574325 59.6998 1.21666 59.9738 1.84213 59.8452L9.55321 58.2561L9.75097 65.8267C9.76784 66.4758 10.1925 67.0423 10.8088 67.2428C10.9651 67.2934 11.1246 67.3179 11.2825 67.3179C11.75 67.3179 12.2038 67.1035 12.4981 66.7193L24.6872 50.857C27.1553 51.6316 29.7783 52.0527 32.4994 52.0527C35.2205 52.0527 37.8435 51.6316 40.3117 50.8554L52.5007 66.7177C52.7966 67.102 53.2488 67.3163 53.7164 67.3163C53.8743 67.3163 54.0353 67.2918 54.1901 67.2413C54.8079 67.0408 55.2326 66.4743 55.2479 65.8252L55.4456 58.2546L63.1567 59.8437C63.7837 59.9723 64.4261 59.6998 64.7649 59.1563C65.1067 58.6159 65.073 57.9193 64.6821 57.4125ZM12.702 61.4237L12.5702 56.3455C12.5579 55.8923 12.3464 55.4667 11.9907 55.185C11.6351 54.9033 11.169 54.7946 10.7275 54.8849L5.2577 56.0133L14.1339 44.4698C16.3138 46.6361 18.8847 48.3998 21.7162 49.6919L12.702 61.4237ZM9.50416 26.0263C9.50416 13.3638 19.8198 3.06192 32.4994 3.06192C45.179 3.06192 55.4947 13.3638 55.4947 26.0263C55.4947 38.6889 45.179 48.9907 32.4994 48.9907C19.8198 48.9907 9.50416 38.6889 9.50416 26.0263ZM54.2714 54.8865C53.8283 54.7961 53.3638 54.9048 53.0081 55.1865C52.6525 55.4682 52.4409 55.8923 52.4287 56.347L52.2968 61.4237L43.2827 49.6919C46.1142 48.3998 48.685 46.6361 50.865 44.4698L59.7412 56.0133L54.2714 54.8865Z" fill="#1999F2"/>
</svg>